<svg version="1.1" id="Layer_1" xmlns="http://www.w3.org/2000/svg" xmlns:xlink="http://www.w3.org/1999/xlink" x="0px" y="0px"
	 width="100%" viewBox="0 0 512 512" enable-background="new 0 0 512 512" xml:space="preserve">
<path fill="#000000" opacity="0.000000" stroke="none" 
	d="
M290.000000,513.000000 
	C193.356796,513.000000 97.213585,513.000000 1.035192,513.000000 
	C1.035192,342.398438 1.035192,171.796860 1.035192,1.097646 
	C171.559891,1.097646 342.119843,1.097646 512.839905,1.097646 
	C512.839905,171.666550 512.839905,342.333252 512.839905,513.000000 
	C438.796844,513.000000 364.648407,513.000000 290.000000,513.000000 
M73.322830,126.149361 
	C64.683426,134.456436 58.445610,144.542374 54.419056,155.578186 
	C51.231503,164.314484 50.146435,173.817932 47.960766,183.907349 
	C47.964527,230.068024 48.086666,276.229156 47.908356,322.389130 
	C47.845253,338.725464 51.137333,354.143433 59.144753,368.339874 
	C65.549583,379.695007 73.331589,390.216125 84.259621,397.584991 
	C92.138245,402.897614 100.879601,406.916840 109.135979,411.686340 
	C123.011803,419.702026 136.786484,427.892639 150.643600,435.940979 
	C164.634018,444.066711 178.583267,452.270264 192.723297,460.128937 
	C201.602173,465.063538 210.799286,469.425476 220.185089,474.698242 
	C223.411758,476.139191 226.544922,477.861725 229.882141,478.969696 
	C241.043030,482.675385 252.319305,484.603546 264.282898,483.181061 
	C274.630066,481.950806 284.555298,480.308624 293.929596,474.049988 
	C301.138580,470.403534 308.478363,466.991791 315.530212,463.063263 
	C331.716431,454.046112 347.804382,444.849945 363.854156,435.591187 
	C382.464050,424.855560 400.820343,413.667633 419.615784,403.270935 
	C431.167969,396.880798 441.013763,388.825470 448.398834,377.997681 
	C459.512695,361.702728 465.743561,344.069000 465.222626,323.787720 
	C464.440460,293.334442 465.037079,262.846222 465.012482,232.372864 
	C464.999420,216.226257 464.912659,200.079727 464.960876,183.025604 
	C463.972961,176.320572 463.667206,169.424850 461.857361,162.949539 
	C457.893921,148.768723 450.736420,136.245010 439.770569,125.292641 
	C434.672791,120.892967 429.966095,115.896423 424.382660,112.237892 
	C416.613190,107.146950 408.145844,103.130554 400.050598,98.525230 
	C383.433716,89.072067 366.889832,79.490669 350.269653,70.043388 
	C337.552460,62.814648 324.751678,55.733124 312.010986,48.545490 
	C298.235413,40.774029 285.221161,31.590292 268.685791,29.804632 
	C254.169250,28.236988 239.788895,28.025444 226.742645,34.924477 
	C205.002457,46.420982 183.787384,58.909851 162.340485,70.961830 
	C138.119553,84.572662 113.912254,98.208153 89.641922,111.730431 
	C83.284058,115.272751 77.613213,119.433701 73.322830,126.149361 
z"/>
<path fill="#BBC1C5" opacity="1.000000" stroke="none" 
	d="
M219.853622,474.044373 
	C210.799286,469.425476 201.602173,465.063538 192.723297,460.128937 
	C178.583267,452.270264 164.634018,444.066711 150.643600,435.940979 
	C136.786484,427.892639 123.011803,419.702026 109.135979,411.686340 
	C100.879601,406.916840 92.138245,402.897614 84.259621,397.584991 
	C73.331589,390.216125 65.549583,379.695007 59.144753,368.339874 
	C51.137333,354.143433 47.845253,338.725464 47.908356,322.389130 
	C48.086666,276.229156 47.964527,230.068024 48.396858,183.366562 
	C49.226028,181.979309 49.739136,181.167313 49.993549,180.281052 
	C52.471699,171.648239 56.863083,164.690521 66.245064,162.471268 
	C72.870926,160.903976 79.266800,162.433868 85.036957,165.597214 
	C98.298576,172.867599 111.381538,180.465958 124.492706,188.008224 
	C147.111908,201.020020 169.658875,214.157745 192.310760,227.112198 
	C207.030930,235.530533 221.948303,243.501114 231.810318,258.215027 
	C241.231918,272.271851 248.694656,287.187622 248.848419,304.292084 
	C249.275253,351.771576 249.048523,399.257599 248.905548,446.740509 
	C248.893280,450.813293 248.013046,455.015167 246.791962,458.924652 
	C244.404373,466.568909 239.406754,472.038116 231.300812,473.617798 
	C227.597977,474.339355 223.676132,473.936981 219.853622,474.044373 
M128.049240,281.217651 
	C130.122787,266.167236 126.105728,253.079483 114.543831,243.053314 
	C107.772896,237.181717 100.127518,239.654343 98.216309,248.358170 
	C97.042320,253.704651 97.872803,259.491302 97.312347,265.676483 
	C96.969772,278.903107 102.264526,289.541046 112.556824,297.582489 
	C115.837029,300.145355 119.878662,300.742645 123.613922,297.801605 
	C127.567131,294.688965 129.691132,287.230194 128.049240,281.217651 
M192.041946,385.216675 
	C194.138794,370.159088 190.093536,357.081207 178.532501,347.060394 
	C171.755066,341.185883 164.134399,343.652405 162.211365,352.363403 
	C161.031586,357.707550 161.864014,363.495880 161.311234,369.686920 
	C160.978058,382.908295 166.263733,393.548553 176.559189,401.585236 
	C179.840408,404.146576 183.880249,404.744446 187.615494,401.798248 
	C191.566620,398.681732 193.690887,391.220856 192.041946,385.216675 
z"/>
<path fill="#9FA5A5" opacity="1.000000" stroke="none" 
	d="
M464.859192,183.933167 
	C464.912659,200.079727 464.999420,216.226257 465.012482,232.372864 
	C465.037079,262.846222 464.440460,293.334442 465.222626,323.787720 
	C465.743561,344.069000 459.512695,361.702728 448.398834,377.997681 
	C441.013763,388.825470 431.167969,396.880798 419.615784,403.270935 
	C400.820343,413.667633 382.464050,424.855560 363.854156,435.591187 
	C347.804382,444.849945 331.716431,454.046112 315.530212,463.063263 
	C308.478363,466.991791 301.138580,470.403534 293.083069,474.005280 
	C283.932739,474.594086 276.265228,473.517914 270.740997,466.286102 
	C266.622223,460.894257 264.987640,454.727905 264.982208,448.088593 
	C264.944061,401.446136 265.029968,354.803406 264.873871,308.161438 
	C264.841003,298.342712 266.549957,288.973694 270.167053,279.946381 
	C277.128632,262.572174 287.156128,247.354584 303.618073,237.691315 
	C341.347168,215.544098 379.260315,193.708084 417.234589,171.983154 
	C423.810974,168.220825 430.839203,164.944580 438.045044,162.664978 
	C446.605347,159.956848 455.367920,163.802734 459.908112,171.569351 
	C462.124023,175.360001 463.243439,179.791656 464.859192,183.933167 
M384.077362,311.216644 
	C384.163147,307.257141 384.599701,303.265961 384.245361,299.346252 
	C383.808899,294.517914 381.930511,290.027039 376.878845,288.412384 
	C371.767639,286.778717 367.983093,289.918243 364.500458,293.158295 
	C363.534485,294.057007 362.692596,295.118286 361.928253,296.200012 
	C354.500275,306.712219 351.221161,318.197235 353.343353,331.619202 
	C352.590729,338.456787 354.981049,344.643524 359.665436,346.651825 
	C365.588379,349.191162 369.803497,345.741119 373.623169,341.843079 
	C379.509399,335.836121 382.644043,328.431488 383.964996,320.241760 
	C384.247253,318.492065 383.800049,316.624756 383.645355,314.175507 
	C383.785217,313.777252 383.925079,313.379028 384.363190,312.821167 
	C384.428772,312.730804 384.569855,312.597900 384.547028,312.557434 
	C384.442535,312.372040 384.292084,312.212555 384.077362,311.216644 
M401.340027,355.622345 
	C401.240875,357.102081 400.906555,358.610046 401.080231,360.057037 
	C402.333466,370.499359 410.826172,374.658661 418.702332,368.520660 
	C427.644012,361.552368 430.905396,351.479248 432.837463,340.847473 
	C432.944489,340.258484 432.098114,339.496277 431.652679,338.178314 
	C431.790344,337.779053 431.928040,337.379791 432.366028,336.822479 
	C432.431610,336.731659 432.572784,336.597778 432.549774,336.557312 
	C432.444214,336.371796 432.292755,336.212341 432.078491,335.216309 
	C432.167328,331.255890 432.611664,327.263062 432.254456,323.343323 
	C431.814728,318.518555 429.950439,314.017792 424.886536,312.407013 
	C419.774841,310.781006 415.982666,313.895050 412.504333,317.150238 
	C411.540375,318.052368 410.697235,319.112061 409.932373,320.193970 
	C402.499725,330.707428 399.207764,342.192657 401.340027,355.622345 
M335.658844,290.182678 
	C335.795593,289.781647 335.932343,289.380646 336.367523,288.820862 
	C336.432526,288.730164 336.572754,288.596710 336.549622,288.556030 
	C336.444611,288.371033 336.293549,288.212189 336.078796,287.216217 
	C336.168976,283.256226 336.607544,279.265381 336.260590,275.344055 
	C335.832825,270.508850 333.948151,266.026337 328.890778,264.414062 
	C323.778534,262.784332 319.999359,265.926575 316.498810,269.147522 
	C315.647003,269.931274 314.877411,270.833649 314.203369,271.776794 
	C306.617584,282.391357 303.165619,293.995270 305.341553,307.620758 
	C305.241577,309.101501 304.837952,310.637878 305.097076,312.052856 
	C305.962189,316.777496 307.725220,321.011261 312.609039,323.027100 
	C317.510773,325.050293 320.943298,322.081116 324.152771,319.257538 
	C330.916748,313.306854 334.274841,305.412201 335.921844,296.755188 
	C336.282471,294.859711 335.797363,292.803314 335.658844,290.182678 
z"/>
<path fill="#ECF0F1" opacity="1.000000" stroke="none" 
	d="
M73.954155,125.896355 
	C77.613213,119.433701 83.284058,115.272751 89.641922,111.730431 
	C113.912254,98.208153 138.119553,84.572662 162.340485,70.961830 
	C183.787384,58.909851 205.002457,46.420982 226.742645,34.924477 
	C239.788895,28.025444 254.169250,28.236988 268.685791,29.804632 
	C285.221161,31.590292 298.235413,40.774029 312.010986,48.545490 
	C324.751678,55.733124 337.552460,62.814648 350.269653,70.043388 
	C366.889832,79.490669 383.433716,89.072067 400.050598,98.525230 
	C408.145844,103.130554 416.613190,107.146950 424.382660,112.237892 
	C429.966095,115.896423 434.672791,120.892967 439.884674,126.034225 
	C442.693085,137.871704 437.496124,145.778030 428.662445,150.984482 
	C406.342590,164.139572 383.650452,176.662918 361.110565,189.444916 
	C341.605743,200.505768 322.137909,211.632477 302.588531,222.614075 
	C293.191864,227.892517 283.983185,233.550385 273.064667,235.531464 
	C256.450409,238.545975 240.038254,238.074234 224.949371,230.257843 
	C205.786224,220.330887 187.205963,209.275131 168.414124,198.635895 
	C141.674988,183.497223 114.954208,168.325928 88.263123,153.102722 
	C78.798599,147.704636 70.054024,141.347809 73.954155,125.896355 
M145.713852,145.299652 
	C143.976166,149.533325 145.393402,152.805359 149.093018,155.012558 
	C161.317993,162.306107 174.203354,162.122375 186.568924,156.279373 
	C191.894043,153.763123 195.118774,150.040894 192.040726,143.232224 
	C194.274567,137.958511 191.241486,134.745941 187.186478,132.730240 
	C174.965393,126.655327 162.517044,126.435440 150.349518,132.894348 
	C144.608841,135.941666 143.883057,138.890182 145.713852,145.299652 
M321.709320,121.303314 
	C319.981110,125.536110 321.394562,128.807205 325.095337,131.014389 
	C337.318695,138.304459 350.202759,138.124557 362.564423,132.281082 
	C367.914886,129.751831 371.105042,126.035545 368.050934,119.235992 
	C370.216614,114.249939 367.503052,110.990784 363.618408,108.986015 
	C351.106567,102.528961 338.349579,102.405899 325.886292,109.101624 
	C320.668243,111.904938 319.996185,115.181511 321.709320,121.303314 
M248.039093,111.232079 
	C250.275543,105.956818 247.234039,102.745598 243.183624,100.731308 
	C230.964142,94.654495 218.515396,94.436356 206.348862,100.894073 
	C200.603439,103.943611 199.881165,106.886787 201.714539,113.299316 
	C199.974976,117.533157 201.393097,120.805222 205.092468,123.012329 
	C217.317657,130.306091 230.203354,130.122635 242.569397,124.279366 
	C247.892731,121.763954 251.120300,118.040970 248.039093,111.232079 
M209.709290,185.303284 
	C208.036194,189.292938 209.369537,192.375153 212.652740,194.806519 
	C221.763336,201.553375 242.108536,202.240601 251.515915,195.911880 
	C256.112762,192.819397 258.866516,188.591415 256.049622,183.235840 
	C258.285828,177.956650 255.234283,174.750534 251.186859,172.733246 
	C238.964600,166.641495 226.513016,166.441406 214.344391,172.896362 
	C208.616333,175.934875 207.884262,178.913177 209.709290,185.303284 
M257.715851,81.298149 
	C256.031860,85.287758 257.366821,88.370735 260.649384,90.803001 
	C269.761322,97.554672 290.113159,98.240570 299.519714,91.909462 
	C304.101501,88.825691 306.876373,84.584625 304.040527,79.232483 
	C306.268280,73.960075 303.238800,70.748672 299.183990,68.728973 
	C286.963104,62.641808 274.516357,62.439476 262.349121,68.892326 
	C256.637970,71.921227 255.892532,74.933022 257.715851,81.298149 
M312.049500,151.235687 
	C314.194489,146.254501 311.516052,143.054367 307.602814,141.006180 
	C295.273285,134.552856 282.682556,134.430191 270.327759,140.870941 
	C264.633392,143.839493 263.899109,146.949020 265.709625,153.303177 
	C264.036224,157.292725 265.368835,160.375107 268.652802,162.806076 
	C277.766968,169.552856 298.110352,170.240372 307.516022,163.911804 
	C312.115540,160.817032 314.866180,156.587234 312.049500,151.235687 
z"/>
<path fill="#D7DBDE" opacity="1.000000" stroke="none" 
	d="
M73.638489,126.022858 
	C70.054024,141.347809 78.798599,147.704636 88.263123,153.102722 
	C114.954208,168.325928 141.674988,183.497223 168.414124,198.635895 
	C187.205963,209.275131 205.786224,220.330887 224.949371,230.257843 
	C240.038254,238.074234 256.450409,238.545975 273.064667,235.531464 
	C283.983185,233.550385 293.191864,227.892517 302.588531,222.614075 
	C322.137909,211.632477 341.605743,200.505768 361.110565,189.444916 
	C383.650452,176.662918 406.342590,164.139572 428.662445,150.984482 
	C437.496124,145.778030 442.693085,137.871704 440.015320,126.350845 
	C450.736420,136.245010 457.893921,148.768723 461.857361,162.949539 
	C463.667206,169.424850 463.972961,176.320572 464.910034,183.479385 
	C463.243439,179.791656 462.124023,175.360001 459.908112,171.569351 
	C455.367920,163.802734 446.605347,159.956848 438.045044,162.664978 
	C430.839203,164.944580 423.810974,168.220825 417.234589,171.983154 
	C379.260315,193.708084 341.347168,215.544098 303.618073,237.691315 
	C287.156128,247.354584 277.128632,262.572174 270.167053,279.946381 
	C266.549957,288.973694 264.841003,298.342712 264.873871,308.161438 
	C265.029968,354.803406 264.944061,401.446136 264.982208,448.088593 
	C264.987640,454.727905 266.622223,460.894257 270.740997,466.286102 
	C276.265228,473.517914 283.932739,474.594086 292.704895,473.997009 
	C284.555298,480.308624 274.630066,481.950806 264.282898,483.181061 
	C252.319305,484.603546 241.043030,482.675385 229.882141,478.969696 
	C226.544922,477.861725 223.411758,476.139191 220.019348,474.371307 
	C223.676132,473.936981 227.597977,474.339355 231.300812,473.617798 
	C239.406754,472.038116 244.404373,466.568909 246.791962,458.924652 
	C248.013046,455.015167 248.893280,450.813293 248.905548,446.740509 
	C249.048523,399.257599 249.275253,351.771576 248.848419,304.292084 
	C248.694656,287.187622 241.231918,272.271851 231.810318,258.215027 
	C221.948303,243.501114 207.030930,235.530533 192.310760,227.112198 
	C169.658875,214.157745 147.111908,201.020020 124.492706,188.008224 
	C111.381538,180.465958 98.298576,172.867599 85.036957,165.597214 
	C79.266800,162.433868 72.870926,160.903976 66.245064,162.471268 
	C56.863083,164.690521 52.471699,171.648239 49.993549,180.281052 
	C49.739136,181.167313 49.226028,181.979309 48.480347,182.903244 
	C50.146435,173.817932 51.231503,164.314484 54.419056,155.578186 
	C58.445610,144.542374 64.683426,134.456436 73.638489,126.022858 
z"/>
<path fill="#272727" opacity="1.000000" stroke="none" 
	d="
M161.792847,369.084747 
	C161.864014,363.495880 161.031586,357.707550 162.211365,352.363403 
	C164.134399,343.652405 171.755066,341.185883 178.532501,347.060394 
	C190.093536,357.081207 194.138794,370.159088 191.963669,385.971252 
	C188.284805,398.017029 179.118637,396.930450 172.753403,390.441589 
	C166.886276,384.460541 163.690262,377.104980 161.792847,369.084747 
z"/>
<path fill="#272727" opacity="1.000000" stroke="none" 
	d="
M97.803207,265.080292 
	C97.872803,259.491302 97.042320,253.704651 98.216309,248.358170 
	C100.127518,239.654343 107.772896,237.181717 114.543831,243.053314 
	C126.105728,253.079483 130.122787,266.167236 127.969604,281.972595 
	C124.342583,293.928192 115.214638,292.995453 108.750160,286.448303 
	C102.848465,280.471130 99.725952,273.087158 97.803207,265.080292 
z"/>
<path fill="#E6EAEB" opacity="1.000000" stroke="none" 
	d="
M97.557777,265.378387 
	C99.725952,273.087158 102.848465,280.471130 108.750160,286.448303 
	C115.214638,292.995453 124.342583,293.928192 128.006454,282.389832 
	C129.691132,287.230194 127.567131,294.688965 123.613922,297.801605 
	C119.878662,300.742645 115.837029,300.145355 112.556824,297.582489 
	C102.264526,289.541046 96.969772,278.903107 97.557777,265.378387 
z"/>
<path fill="#E6EAEB" opacity="1.000000" stroke="none" 
	d="
M161.552032,369.385834 
	C163.690262,377.104980 166.886276,384.460541 172.753403,390.441589 
	C179.118637,396.930450 188.284805,398.017029 192.001724,386.388336 
	C193.690887,391.220856 191.566620,398.681732 187.615494,401.798248 
	C183.880249,404.744446 179.840408,404.146576 176.559189,401.585236 
	C166.263733,393.548553 160.978058,382.908295 161.552032,369.385834 
z"/>
<path fill="#020202" opacity="1.000000" stroke="none" 
	d="
M305.854645,307.046967 
	C303.165619,293.995270 306.617584,282.391357 314.203369,271.776794 
	C314.877411,270.833649 315.647003,269.931274 316.498810,269.147522 
	C319.999359,265.926575 323.778534,262.784332 328.890778,264.414062 
	C333.948151,266.026337 335.832825,270.508850 336.260590,275.344055 
	C336.607544,279.265381 336.168976,283.256226 336.046722,287.859222 
	C336.014648,288.502228 336.069092,288.979614 336.069092,288.979614 
	C335.932343,289.380646 335.795593,289.781647 335.466125,290.790466 
	C331.759308,297.823059 329.170227,305.039001 324.512177,310.485504 
	C317.685699,318.467407 310.215607,316.613983 305.854645,307.046967 
z"/>
<path fill="#020202" opacity="1.000000" stroke="none" 
	d="
M432.065735,336.980560 
	C431.928040,337.379791 431.790344,337.779053 431.460876,338.786133 
	C427.757263,345.820709 425.171997,353.039673 420.514526,358.486877 
	C413.686737,366.472412 406.227081,364.620728 401.851868,355.047821 
	C399.207764,342.192657 402.499725,330.707428 409.932373,320.193970 
	C410.697235,319.112061 411.540375,318.052368 412.504333,317.150238 
	C415.982666,313.895050 419.774841,310.781006 424.886536,312.407013 
	C429.950439,314.017792 431.814728,318.518555 432.254456,323.343323 
	C432.611664,327.263062 432.167328,331.255890 432.045654,335.859314 
	C432.012787,336.502319 432.065735,336.980560 432.065735,336.980560 
z"/>
<path fill="#020202" opacity="1.000000" stroke="none" 
	d="
M353.857544,331.046051 
	C351.221161,318.197235 354.500275,306.712219 361.928253,296.200012 
	C362.692596,295.118286 363.534485,294.057007 364.500458,293.158295 
	C367.983093,289.918243 371.767639,286.778717 376.878845,288.412384 
	C381.930511,290.027039 383.808899,294.517914 384.245361,299.346252 
	C384.599701,303.265961 384.163147,307.257141 384.044678,311.859497 
	C384.012024,312.502350 384.064941,312.980774 384.064941,312.980774 
	C383.925079,313.379028 383.785217,313.777252 383.454895,314.783875 
	C379.754303,321.818146 377.169281,329.034210 372.515167,334.482910 
	C365.698730,342.463074 358.241699,340.613220 353.857544,331.046051 
z"/>
<path fill="#B8BEC2" opacity="1.000000" stroke="none" 
	d="
M305.598083,307.333862 
	C310.215607,316.613983 317.685699,318.467407 324.512177,310.485504 
	C329.170227,305.039001 331.759308,297.823059 335.487610,291.109650 
	C335.797363,292.803314 336.282471,294.859711 335.921844,296.755188 
	C334.274841,305.412201 330.916748,313.306854 324.152771,319.257538 
	C320.943298,322.081116 317.510773,325.050293 312.609039,323.027100 
	C307.725220,321.011261 305.962189,316.777496 305.097076,312.052856 
	C304.837952,310.637878 305.241577,309.101501 305.598083,307.333862 
z"/>
<path fill="#B8BEC2" opacity="1.000000" stroke="none" 
	d="
M401.595947,355.335083 
	C406.227081,364.620728 413.686737,366.472412 420.514526,358.486877 
	C425.171997,353.039673 427.757263,345.820709 431.482269,339.104309 
	C432.098114,339.496277 432.944489,340.258484 432.837463,340.847473 
	C430.905396,351.479248 427.644012,361.552368 418.702332,368.520660 
	C410.826172,374.658661 402.333466,370.499359 401.080231,360.057037 
	C400.906555,358.610046 401.240875,357.102081 401.595947,355.335083 
z"/>
<path fill="#B8BEC2" opacity="1.000000" stroke="none" 
	d="
M353.600464,331.332642 
	C358.241699,340.613220 365.698730,342.463074 372.515167,334.482910 
	C377.169281,329.034210 379.754303,321.818146 383.476654,315.101929 
	C383.800049,316.624756 384.247253,318.492065 383.964996,320.241760 
	C382.644043,328.431488 379.509399,335.836121 373.623169,341.843079 
	C369.803497,345.741119 365.588379,349.191162 359.665436,346.651825 
	C354.981049,344.643524 352.590729,338.456787 353.600464,331.332642 
z"/>
<path fill="#B8BEC2" opacity="1.000000" stroke="none" 
	d="
M336.218323,288.900238 
	C336.069092,288.979614 336.014648,288.502228 336.086853,288.273071 
	C336.293549,288.212189 336.444611,288.371033 336.549622,288.556030 
	C336.572754,288.596710 336.432526,288.730164 336.218323,288.900238 
z"/>
<path fill="#B8BEC2" opacity="1.000000" stroke="none" 
	d="
M384.214050,312.900970 
	C384.064941,312.980774 384.012024,312.502350 384.085083,312.273071 
	C384.292084,312.212555 384.442535,312.372040 384.547028,312.557434 
	C384.569855,312.597900 384.428772,312.730804 384.214050,312.900970 
z"/>
<path fill="#B8BEC2" opacity="1.000000" stroke="none" 
	d="
M432.215881,336.901520 
	C432.065735,336.980560 432.012787,336.502319 432.085266,336.272949 
	C432.292755,336.212341 432.444214,336.371796 432.549774,336.557312 
	C432.572784,336.597778 432.431610,336.731659 432.215881,336.901520 
z"/>
<path fill="#393939" opacity="1.000000" stroke="none" 
	d="
M266.348450,152.819031 
	C263.899109,146.949020 264.633392,143.839493 270.327759,140.870941 
	C282.682556,134.430191 295.273285,134.552856 307.602814,141.006180 
	C311.516052,143.054367 314.194489,146.254501 311.713440,151.787628 
	C301.186310,162.797409 278.631165,163.037567 266.348450,152.819031 
z"/>
<path fill="#393939" opacity="1.000000" stroke="none" 
	d="
M258.356537,80.814590 
	C255.892532,74.933022 256.637970,71.921227 262.349121,68.892326 
	C274.516357,62.439476 286.963104,62.641808 299.183990,68.728973 
	C303.238800,70.748672 306.268280,73.960075 303.705994,79.785484 
	C293.207153,90.794701 270.593597,91.033875 258.356537,80.814590 
z"/>
<path fill="#393939" opacity="1.000000" stroke="none" 
	d="
M210.347946,184.819016 
	C207.884262,178.913177 208.616333,175.934875 214.344391,172.896362 
	C226.513016,166.441406 238.964600,166.641495 251.186859,172.733246 
	C255.234283,174.750534 258.285828,177.956650 255.713654,183.787811 
	C245.188385,194.789185 222.641388,195.029144 210.347946,184.819016 
z"/>
<path fill="#393939" opacity="1.000000" stroke="none" 
	d="
M202.355087,112.815933 
	C199.881165,106.886787 200.603439,103.943611 206.348862,100.894073 
	C218.515396,94.436356 230.964142,94.654495 243.183624,100.731308 
	C247.234039,102.745598 250.275543,105.956818 247.704803,111.784531 
	C237.180969,122.784775 214.621689,123.024803 202.355087,112.815933 
z"/>
<path fill="#393939" opacity="1.000000" stroke="none" 
	d="
M322.347992,120.819031 
	C319.996185,115.181511 320.668243,111.904938 325.886292,109.101624 
	C338.349579,102.405899 351.106567,102.528961 363.618408,108.986015 
	C367.503052,110.990784 370.216614,114.249939 367.714294,119.787872 
	C357.188202,130.789459 334.641693,131.029419 322.347992,120.819031 
z"/>
<path fill="#393939" opacity="1.000000" stroke="none" 
	d="
M146.354080,144.816010 
	C143.883057,138.890182 144.608841,135.941666 150.349518,132.894348 
	C162.517044,126.435440 174.965393,126.655327 187.186478,132.730240 
	C191.241486,134.745941 194.274567,137.958511 191.705994,143.784775 
	C181.179535,154.794052 158.603485,155.034119 146.354080,144.816010 
z"/>
<path fill="#FBFBFB" opacity="1.000000" stroke="none" 
	d="
M210.028625,185.061157 
	C222.641388,195.029144 245.188385,194.789185 255.660950,184.158112 
	C258.866516,188.591415 256.112762,192.819397 251.515915,195.911880 
	C242.108536,202.240601 221.763336,201.553375 212.652740,194.806519 
	C209.369537,192.375153 208.036194,189.292938 210.028625,185.061157 
z"/>
<path fill="#FBFBFB" opacity="1.000000" stroke="none" 
	d="
M258.036194,81.056366 
	C270.593597,91.033875 293.207153,90.794701 303.653687,80.155548 
	C306.876373,84.584625 304.101501,88.825691 299.519714,91.909462 
	C290.113159,98.240570 269.761322,97.554672 260.649384,90.803001 
	C257.366821,88.370735 256.031860,85.287758 258.036194,81.056366 
z"/>
<path fill="#FBFBFB" opacity="1.000000" stroke="none" 
	d="
M266.029053,153.061096 
	C278.631165,163.037567 301.186310,162.797409 311.660706,152.157959 
	C314.866180,156.587234 312.115540,160.817032 307.516022,163.911804 
	C298.110352,170.240372 277.766968,169.552856 268.652802,162.806076 
	C265.368835,160.375107 264.036224,157.292725 266.029053,153.061096 
z"/>
<path fill="#FBFBFB" opacity="1.000000" stroke="none" 
	d="
M146.033966,145.057831 
	C158.603485,155.034119 181.179535,154.794052 191.653687,144.154907 
	C195.118774,150.040894 191.894043,153.763123 186.568924,156.279373 
	C174.203354,162.122375 161.317993,162.306107 149.093018,155.012558 
	C145.393402,152.805359 143.976166,149.533325 146.033966,145.057831 
z"/>
<path fill="#FBFBFB" opacity="1.000000" stroke="none" 
	d="
M202.034821,113.057625 
	C214.621689,123.024803 237.180969,122.784775 247.652939,112.154694 
	C251.120300,118.040970 247.892731,121.763954 242.569397,124.279366 
	C230.203354,130.122635 217.317657,130.306091 205.092468,123.012329 
	C201.393097,120.805222 199.974976,117.533157 202.034821,113.057625 
z"/>
<path fill="#FBFBFB" opacity="1.000000" stroke="none" 
	d="
M322.028656,121.061172 
	C334.641693,131.029419 357.188202,130.789459 367.660950,120.158096 
	C371.105042,126.035545 367.914886,129.751831 362.564423,132.281082 
	C350.202759,138.124557 337.318695,138.304459 325.095337,131.014389 
	C321.394562,128.807205 319.981110,125.536110 322.028656,121.061172 
z"/>
</svg>
